<svg width="113" height="29" viewBox="0 0 113 29" fill="none" xmlns="http://www.w3.org/2000/svg">
<g filter="url(#filter0_d_522_13)">
<path d="M19.7069 17V8.51221H21.9389V9.16386C22.5471 8.62081 23.2856 8.34929 24.1545 8.34929C24.7084 8.34929 25.2026 8.46333 25.637 8.69141C26.0714 8.90863 26.4298 9.21816 26.7122 9.62002C27.0598 9.2073 27.4671 8.89234 27.9341 8.67512C28.412 8.4579 28.9387 8.34929 29.5143 8.34929C30.1551 8.34929 30.7145 8.49591 31.1923 8.78916C31.6811 9.07154 32.0612 9.46796 32.3327 9.97843C32.6151 10.478 32.7563 11.0645 32.7563 11.7379V17H30.5407V12.0637C30.5407 11.5098 30.3941 11.0754 30.1008 10.7604C29.8076 10.4346 29.4166 10.2717 28.9278 10.2717C28.5912 10.2717 28.2816 10.3423 27.9992 10.4835C27.7277 10.6247 27.4942 10.8364 27.2987 11.1188C27.3096 11.2166 27.3204 11.3143 27.3313 11.4121C27.3422 11.5098 27.3476 11.6184 27.3476 11.7379V17H25.1157V12.0637C25.1157 11.5098 24.969 11.0754 24.6758 10.7604C24.3934 10.4346 24.0079 10.2717 23.5191 10.2717C23.1824 10.2717 22.8783 10.3368 22.6068 10.4672C22.3461 10.5975 22.1235 10.793 21.9389 11.0537V17H19.7069ZM37.1594 17.1466C36.5512 17.1466 36.0136 17.038 35.5466 16.8208C35.0796 16.5927 34.7157 16.2832 34.4551 15.8922C34.1944 15.5012 34.0641 15.0505 34.0641 14.54C34.0641 13.7254 34.3682 13.0955 34.9764 12.6502C35.5955 12.1941 36.4426 11.966 37.5178 11.966C38.2564 11.966 38.9515 12.08 39.6031 12.3081V11.689C39.6031 11.2003 39.4511 10.831 39.147 10.5812C38.8429 10.3314 38.3976 10.2065 37.8111 10.2065C37.4527 10.2065 37.0671 10.2662 36.6544 10.3857C36.2417 10.4943 35.7638 10.6681 35.2208 10.907L34.4062 9.26161C35.0796 8.9575 35.7204 8.72942 36.3286 8.57737C36.9476 8.42532 37.5667 8.34929 38.1858 8.34929C39.3262 8.34929 40.2113 8.62625 40.8413 9.18015C41.4821 9.7232 41.8025 10.4943 41.8025 11.4935V17H39.6031V16.3972C39.2556 16.6579 38.8809 16.8479 38.479 16.9674C38.0772 17.0869 37.6373 17.1466 37.1594 17.1466ZM36.182 14.4911C36.182 14.817 36.3231 15.0776 36.6055 15.2731C36.8879 15.4578 37.2626 15.5501 37.7296 15.5501C38.0989 15.5501 38.441 15.5066 38.756 15.4197C39.071 15.322 39.3533 15.1808 39.6031 14.9962V13.758C39.3316 13.6494 39.0492 13.568 38.756 13.5137C38.4627 13.4593 38.1478 13.4322 37.8111 13.4322C37.3006 13.4322 36.8988 13.5299 36.6055 13.7254C36.3231 13.9101 36.182 14.1653 36.182 14.4911ZM47.76 20.4863C47.1084 20.4863 46.4784 20.4158 45.8702 20.2746C45.262 20.1442 44.7135 19.9542 44.2248 19.7044L45.0068 17.9775C45.4738 18.2056 45.93 18.3739 46.3752 18.4825C46.8205 18.5911 47.2658 18.6454 47.7111 18.6454C48.3737 18.6454 48.8733 18.5042 49.2099 18.2219C49.5575 17.9395 49.7313 17.5159 49.7313 16.9511V16.2832C49.0362 16.7936 48.2596 17.0489 47.4016 17.0489C46.5979 17.0489 45.8702 16.8588 45.2186 16.4787C44.5778 16.0877 44.0619 15.5609 43.6709 14.8984C43.2908 14.2359 43.1007 13.5028 43.1007 12.6991C43.1007 11.8954 43.2908 11.1677 43.6709 10.516C44.0619 9.86439 44.5886 9.34849 45.2511 8.96836C45.9137 8.57737 46.6522 8.38187 47.4668 8.38187C47.8795 8.38187 48.2813 8.44161 48.6723 8.56108C49.0633 8.68055 49.4272 8.84889 49.7638 9.06611V8.51221H51.9632V16.9837C51.9632 18.1024 51.5993 18.9658 50.8717 19.574C50.1548 20.1822 49.1176 20.4863 47.76 20.4863ZM47.7437 15.1591C48.1564 15.1591 48.5311 15.0939 48.8678 14.9636C49.2045 14.8224 49.4923 14.6269 49.7313 14.3771V11.0537C49.4923 10.8147 49.1991 10.6301 48.8515 10.4998C48.5148 10.3586 48.151 10.288 47.76 10.288C47.293 10.288 46.8748 10.3966 46.5056 10.6138C46.1363 10.8201 45.8431 11.108 45.6258 11.4772C45.4086 11.8356 45.3 12.2429 45.3 12.6991C45.3 13.1661 45.4032 13.5842 45.6096 13.9535C45.8268 14.3228 46.12 14.616 46.4893 14.8333C46.8694 15.0505 47.2876 15.1591 47.7437 15.1591ZM56.41 17.1466C55.8017 17.1466 55.2641 17.038 54.7971 16.8208C54.3301 16.5927 53.9663 16.2832 53.7056 15.8922C53.4449 15.5012 53.3146 15.0505 53.3146 14.54C53.3146 13.7254 53.6187 13.0955 54.2269 12.6502C54.846 12.1941 55.6931 11.966 56.7684 11.966C57.5069 11.966 58.202 12.08 58.8537 12.3081V11.689C58.8537 11.2003 58.7016 10.831 58.3975 10.5812C58.0934 10.3314 57.6481 10.2065 57.0616 10.2065C56.7032 10.2065 56.3176 10.2662 55.9049 10.3857C55.4922 10.4943 55.0143 10.6681 54.4713 10.907L53.6567 9.26161C54.3301 8.9575 54.9709 8.72942 55.5791 8.57737C56.1982 8.42532 56.8172 8.34929 57.4363 8.34929C58.5767 8.34929 59.4619 8.62625 60.0918 9.18015C60.7326 9.7232 61.053 10.4943 61.053 11.4935V17H58.8537V16.3972C58.5061 16.6579 58.1314 16.8479 57.7296 16.9674C57.3277 17.0869 56.8878 17.1466 56.41 17.1466ZM55.4325 14.4911C55.4325 14.817 55.5737 15.0776 55.8561 15.2731C56.1384 15.4578 56.5131 15.5501 56.9802 15.5501C57.3494 15.5501 57.6915 15.5066 58.0065 15.4197C58.3215 15.322 58.6039 15.1808 58.8537 14.9962V13.758C58.5821 13.6494 58.2998 13.568 58.0065 13.5137C57.7133 13.4593 57.3983 13.4322 57.0616 13.4322C56.5511 13.4322 56.1493 13.5299 55.8561 13.7254C55.5737 13.9101 55.4325 14.1653 55.4325 14.4911ZM62.7422 17V8.51221H64.9741V9.4571C65.2456 9.08783 65.5715 8.80545 65.9516 8.60995C66.3317 8.41446 66.7607 8.31671 67.2386 8.31671C67.6513 8.32757 67.9609 8.39274 68.1672 8.51221V10.4672C68.0043 10.3911 67.8251 10.3368 67.6296 10.3043C67.4341 10.2608 67.2332 10.2391 67.0268 10.2391C66.5924 10.2391 66.196 10.3477 65.8376 10.5649C65.4791 10.7821 65.1913 11.0917 64.9741 11.4935V17H62.7422ZM69.3924 17V8.51221H71.6243V9.4571C71.8958 9.08783 72.2216 8.80545 72.6018 8.60995C72.9819 8.41446 73.4109 8.31671 73.8888 8.31671C74.3015 8.32757 74.611 8.39274 74.8174 8.51221V10.4672C74.6545 10.3911 74.4753 10.3368 74.2798 10.3043C74.0843 10.2608 73.8834 10.2391 73.677 10.2391C73.2426 10.2391 72.8461 10.3477 72.4877 10.5649C72.1293 10.7821 71.8415 11.0917 71.6243 11.4935V17H69.3924ZM78.5083 17.1466C77.9001 17.1466 77.3625 17.038 76.8954 16.8208C76.4284 16.5927 76.0646 16.2832 75.8039 15.8922C75.5433 15.5012 75.4129 15.0505 75.4129 14.54C75.4129 13.7254 75.717 13.0955 76.3252 12.6502C76.9443 12.1941 77.7915 11.966 78.8667 11.966C79.6052 11.966 80.3003 12.08 80.952 12.3081V11.689C80.952 11.2003 80.7999 10.831 80.4958 10.5812C80.1917 10.3314 79.7464 10.2065 79.1599 10.2065C78.8015 10.2065 78.416 10.2662 78.0033 10.3857C77.5905 10.4943 77.1127 10.6681 76.5696 10.907L75.755 9.26161C76.4284 8.9575 77.0692 8.72942 77.6774 8.57737C78.2965 8.42532 78.9156 8.34929 79.5346 8.34929C80.675 8.34929 81.5602 8.62625 82.1901 9.18015C82.8309 9.7232 83.1513 10.4943 83.1513 11.4935V17H80.952V16.3972C80.6044 16.6579 80.2297 16.8479 79.8279 16.9674C79.426 17.0869 78.9862 17.1466 78.5083 17.1466ZM77.5308 14.4911C77.5308 14.817 77.672 15.0776 77.9544 15.2731C78.2368 15.4578 78.6115 15.5501 79.0785 15.5501C79.4478 15.5501 79.7899 15.5066 80.1048 15.4197C80.4198 15.322 80.7022 15.1808 80.952 14.9962V13.758C80.6805 13.6494 80.3981 13.568 80.1048 13.5137C79.8116 13.4593 79.4966 13.4322 79.1599 13.4322C78.6495 13.4322 78.2476 13.5299 77.9544 13.7254C77.672 13.9101 77.5308 14.1653 77.5308 14.4911ZM84.8405 17V5.59605L87.0724 5.10731V9.21273C87.7132 8.63711 88.5061 8.34929 89.451 8.34929C90.1135 8.34929 90.6946 8.49591 91.1942 8.78916C91.7046 9.07154 92.101 9.46796 92.3834 9.97843C92.6658 10.478 92.807 11.0645 92.807 11.7379V17H90.5751V12.0637C90.5751 11.5098 90.4176 11.0754 90.1026 10.7604C89.7877 10.4346 89.3587 10.2717 88.8156 10.2717C88.4355 10.2717 88.0988 10.3477 87.8056 10.4998C87.5123 10.6409 87.2679 10.8473 87.0724 11.1188V17H84.8405ZM97.7089 17.1629C97.0573 17.1629 96.4762 17.0217 95.9657 16.7393C95.4661 16.4461 95.0697 16.0442 94.7765 15.5338C94.4941 15.0233 94.3529 14.4368 94.3529 13.7743V8.51221H96.5848V13.4485C96.5848 13.9915 96.7423 14.426 97.0573 14.7518C97.3831 15.0776 97.8175 15.2405 98.3606 15.2405C98.7298 15.2405 99.0611 15.1699 99.3543 15.0287C99.6584 14.8767 99.9082 14.6649 100.104 14.3934V8.51221H102.336V17H100.104V16.3158C99.4521 16.8805 98.6538 17.1629 97.7089 17.1629ZM104.075 17V5.59605L106.307 5.22135V17H104.075Z" fill="white"/>
<circle cx="10.4641" cy="12.6696" r="6.46413" fill="#7EFF73"/>
</g>
<defs>
<filter id="filter0_d_522_13" x="0" y="5.1073" width="110.307" height="23.3791" filterUnits="userSpaceOnUse" color-interpolation-filters="sRGB">
<feFlood flood-opacity="0" result="BackgroundImageFix"/>
<feColorMatrix in="SourceAlpha" type="matrix" values="0 0 0 0 0 0 0 0 0 0 0 0 0 0 0 0 0 0 127 0" result="hardAlpha"/>
<feOffset dy="4"/>
<feGaussianBlur stdDeviation="2"/>
<feComposite in2="hardAlpha" operator="out"/>
<feColorMatrix type="matrix" values="0 0 0 0 0 0 0 0 0 0 0 0 0 0 0 0 0 0 0.25 0"/>
<feBlend mode="normal" in2="BackgroundImageFix" result="effect1_dropShadow_522_13"/>
<feBlend mode="normal" in="SourceGraphic" in2="effect1_dropShadow_522_13" result="shape"/>
</filter>
</defs>
</svg>
