<svg width="366" height="160" viewBox="0 0 366 160" fill="none" xmlns="http://www.w3.org/2000/svg">
<path d="M2.31084 34V10.212H10.4327C13.2193 10.212 15.5075 10.7104 17.2973 11.7072C19.1097 12.6814 20.4464 14.0634 21.3073 15.8531C22.1908 17.6202 22.6326 19.7045 22.6326 22.106C22.6326 24.5074 22.1908 26.6031 21.3073 28.3928C20.4464 30.1599 19.1097 31.5419 17.2973 32.5387C15.5075 33.5129 13.2193 34 10.4327 34H2.31084ZM6.66065 30.2619H10.2289C12.2225 30.2619 13.7971 29.9447 14.9525 29.3104C16.1079 28.6534 16.9348 27.7245 17.4332 26.5238C17.9316 25.3004 18.1808 23.8278 18.1808 22.106C18.1808 20.4068 17.9316 18.9456 17.4332 17.7222C16.9348 16.4988 16.1079 15.5586 14.9525 14.9016C13.7971 14.2446 12.2225 13.9161 10.2289 13.9161H6.66065V30.2619ZM35.2381 34.4078C33.539 34.4078 32.0324 34.0453 30.7184 33.3203C29.4044 32.5954 28.3736 31.5759 27.626 30.2619C26.8783 28.9479 26.5045 27.43 26.5045 25.7082C26.5045 23.9637 26.867 22.4118 27.592 21.0525C28.3396 19.6932 29.3591 18.6397 30.6504 17.8921C31.9645 17.1218 33.505 16.7367 35.2721 16.7367C36.926 16.7367 38.3872 17.0992 39.6559 17.8241C40.9246 18.5491 41.9101 19.5459 42.6124 20.8146C43.3374 22.0607 43.6999 23.454 43.6999 24.9945C43.6999 25.2437 43.6886 25.5043 43.6659 25.7761C43.6659 26.048 43.6546 26.3312 43.6319 26.6257H30.8204C30.911 27.9397 31.3641 28.9705 32.1797 29.7182C33.0179 30.4658 34.0261 30.8396 35.2042 30.8396C36.0877 30.8396 36.824 30.647 37.413 30.2619C38.0247 29.8541 38.4778 29.333 38.7724 28.6987H43.1901C42.873 29.7635 42.3406 30.7376 41.5929 31.6212C40.868 32.4821 39.9618 33.1618 38.8743 33.6602C37.8095 34.1586 36.5975 34.4078 35.2381 34.4078ZM35.2721 20.2709C34.2073 20.2709 33.2671 20.5768 32.4515 21.1884C31.6359 21.7775 31.1149 22.6837 30.8883 23.9071H39.2821C39.2141 22.797 38.8063 21.9134 38.0587 21.2564C37.3111 20.5994 36.3822 20.2709 35.2721 20.2709ZM51.928 34L45.7431 17.1445H50.2968L54.5787 29.8881L58.8605 17.1445H63.4142L57.1953 34H51.928ZM74.1977 34.4078C72.4985 34.4078 70.9919 34.0453 69.6779 33.3203C68.3639 32.5954 67.3331 31.5759 66.5855 30.2619C65.8379 28.9479 65.4641 27.43 65.4641 25.7082C65.4641 23.9637 65.8265 22.4118 66.5515 21.0525C67.2991 19.6932 68.3186 18.6397 69.61 17.8921C70.924 17.1218 72.4645 16.7367 74.2316 16.7367C75.8855 16.7367 77.3467 17.0992 78.6154 17.8241C79.8841 18.5491 80.8696 19.5459 81.572 20.8146C82.2969 22.0607 82.6594 23.454 82.6594 24.9945C82.6594 25.2437 82.6481 25.5043 82.6254 25.7761C82.6254 26.048 82.6141 26.3312 82.5914 26.6257H69.7799C69.8705 27.9397 70.3236 28.9705 71.1392 29.7182C71.9775 30.4658 72.9856 30.8396 74.1637 30.8396C75.0472 30.8396 75.7835 30.647 76.3726 30.2619C76.9843 29.8541 77.4374 29.333 77.7319 28.6987H82.1497C81.8325 29.7635 81.3001 30.7376 80.5525 31.6212C79.8275 32.4821 78.9213 33.1618 77.8338 33.6602C76.769 34.1586 75.557 34.4078 74.1977 34.4078ZM74.2316 20.2709C73.1669 20.2709 72.2267 20.5768 71.4111 21.1884C70.5955 21.7775 70.0744 22.6837 69.8479 23.9071H78.2416C78.1737 22.797 77.7659 21.9134 77.0182 21.2564C76.2706 20.5994 75.3418 20.2709 74.2316 20.2709ZM86.9975 34V9.53231H91.3473V34H86.9975ZM104.56 34.4078C102.928 34.4078 101.456 34.034 100.142 33.2864C98.8504 32.5387 97.8196 31.5079 97.0493 30.1939C96.3017 28.8573 95.9279 27.3167 95.9279 25.5722C95.9279 23.8278 96.313 22.2986 97.0833 20.9846C97.8536 19.6479 98.8844 18.6057 100.176 17.8581C101.49 17.1105 102.962 16.7367 104.594 16.7367C106.202 16.7367 107.652 17.1105 108.943 17.8581C110.257 18.6057 111.288 19.6479 112.036 20.9846C112.806 22.2986 113.191 23.8278 113.191 25.5722C113.191 27.3167 112.806 28.8573 112.036 30.1939C111.288 31.5079 110.257 32.5387 108.943 33.2864C107.629 34.034 106.168 34.4078 104.56 34.4078ZM104.56 30.6357C105.692 30.6357 106.678 30.2166 107.516 29.3783C108.354 28.5174 108.773 27.2487 108.773 25.5722C108.773 23.8958 108.354 22.6384 107.516 21.8001C106.678 20.9392 105.704 20.5088 104.594 20.5088C103.438 20.5088 102.441 20.9392 101.603 21.8001C100.787 22.6384 100.38 23.8958 100.38 25.5722C100.38 27.2487 100.787 28.5174 101.603 29.3783C102.441 30.2166 103.427 30.6357 104.56 30.6357ZM117.76 41.4762V17.1445H121.634L122.11 19.5573C122.654 18.8096 123.367 18.1526 124.251 17.5863C125.157 17.0199 126.324 16.7367 127.751 16.7367C129.337 16.7367 130.753 17.1218 131.999 17.8921C133.245 18.6624 134.23 19.7159 134.955 21.0525C135.68 22.3892 136.043 23.9071 136.043 25.6062C136.043 27.3054 135.68 28.8233 134.955 30.1599C134.23 31.4739 133.245 32.5161 131.999 33.2864C130.753 34.034 129.337 34.4078 127.751 34.4078C126.482 34.4078 125.372 34.1699 124.421 33.6942C123.469 33.2184 122.699 32.5501 122.11 31.6892V41.4762H117.76ZM126.833 30.6017C128.215 30.6017 129.36 30.1373 130.266 29.2084C131.172 28.2795 131.625 27.0788 131.625 25.6062C131.625 24.1336 131.172 22.9216 130.266 21.9701C129.36 21.0185 128.215 20.5428 126.833 20.5428C125.429 20.5428 124.273 21.0185 123.367 21.9701C122.484 22.8989 122.042 24.0996 122.042 25.5722C122.042 27.0448 122.484 28.2569 123.367 29.2084C124.273 30.1373 125.429 30.6017 126.833 30.6017ZM148.798 34.4078C147.099 34.4078 145.592 34.0453 144.278 33.3203C142.964 32.5954 141.934 31.5759 141.186 30.2619C140.438 28.9479 140.064 27.43 140.064 25.7082C140.064 23.9637 140.427 22.4118 141.152 21.0525C141.9 19.6932 142.919 18.6397 144.21 17.8921C145.524 17.1218 147.065 16.7367 148.832 16.7367C150.486 16.7367 151.947 17.0992 153.216 17.8241C154.485 18.5491 155.47 19.5459 156.172 20.8146C156.897 22.0607 157.26 23.454 157.26 24.9945C157.26 25.2437 157.249 25.5043 157.226 25.7761C157.226 26.048 157.215 26.3312 157.192 26.6257H144.38C144.471 27.9397 144.924 28.9705 145.74 29.7182C146.578 30.4658 147.586 30.8396 148.764 30.8396C149.648 30.8396 150.384 30.647 150.973 30.2619C151.585 29.8541 152.038 29.333 152.332 28.6987H156.75C156.433 29.7635 155.901 30.7376 155.153 31.6212C154.428 32.4821 153.522 33.1618 152.434 33.6602C151.369 34.1586 150.157 34.4078 148.798 34.4078ZM148.832 20.2709C147.767 20.2709 146.827 20.5768 146.011 21.1884C145.196 21.7775 144.675 22.6837 144.448 23.9071H152.842C152.774 22.797 152.366 21.9134 151.619 21.2564C150.871 20.5994 149.942 20.2709 148.832 20.2709ZM161.598 34V17.1445H165.472L165.88 20.3049C166.491 19.2174 167.318 18.3565 168.361 17.7222C169.425 17.0652 170.671 16.7367 172.099 16.7367V21.3244H170.875C169.924 21.3244 169.074 21.4716 168.327 21.7662C167.579 22.0607 166.99 22.5704 166.559 23.2954C166.152 24.0204 165.948 25.0285 165.948 26.3199V34H161.598ZM192.243 34.3738C190.498 34.3738 188.98 34.0793 187.689 33.4903C186.397 32.8786 185.389 32.029 184.664 30.9415C183.962 29.8541 183.611 28.5854 183.611 27.1355C183.611 25.5949 184.041 24.2016 184.902 22.9556C185.763 21.7095 187.043 20.7127 188.742 19.9651C188.063 19.1721 187.576 18.4245 187.281 17.7222C186.987 17.0199 186.839 16.2723 186.839 15.4793C186.839 14.3919 187.111 13.429 187.655 12.5908C188.199 11.7299 188.969 11.0502 189.966 10.5518C190.985 10.0534 192.197 9.80418 193.602 9.80418C195.029 9.80418 196.241 10.0647 197.238 10.5858C198.235 11.1069 198.982 11.8092 199.481 12.6927C200.002 13.5763 200.24 14.5618 200.195 15.6492H196.049C196.049 14.811 195.799 14.188 195.301 13.7802C194.825 13.3497 194.248 13.1345 193.568 13.1345C192.798 13.1345 192.175 13.3497 191.699 13.7802C191.246 14.2106 191.019 14.7657 191.019 15.4453C191.019 16.0117 191.2 16.5894 191.563 17.1785C191.925 17.7675 192.458 18.4472 193.16 19.2174L199.821 25.8101C200.297 25.0398 200.795 24.145 201.316 23.1255L202.064 21.6302H206.515L205.326 23.9411C204.42 25.7761 203.514 27.328 202.607 28.5967L208.079 34H202.879L200.229 31.3493C199.073 32.4141 197.838 33.1844 196.524 33.6602C195.233 34.1359 193.806 34.3738 192.243 34.3738ZM187.825 26.8636C187.825 27.9737 188.233 28.9139 189.048 29.6842C189.886 30.4318 190.997 30.8056 192.378 30.8056C194.349 30.8056 196.06 30.1033 197.51 28.6987L191.223 22.4798C190.068 22.9782 189.207 23.6012 188.64 24.3489C188.097 25.0965 187.825 25.9347 187.825 26.8636ZM227.984 34.4078C226.398 34.4078 224.982 34.0227 223.736 33.2524C222.49 32.4821 221.504 31.4286 220.779 30.092C220.054 28.7553 219.692 27.2374 219.692 25.5383C219.692 23.8391 220.054 22.3325 220.779 21.0185C221.504 19.6819 222.49 18.6397 223.736 17.8921C224.982 17.1218 226.398 16.7367 227.984 16.7367C229.253 16.7367 230.363 16.9746 231.314 17.4503C232.266 17.9261 233.036 18.5944 233.625 19.4553V9.53231H237.975V34H234.101L233.625 31.5872C233.081 32.3348 232.356 32.9918 231.45 33.5582C230.567 34.1246 229.411 34.4078 227.984 34.4078ZM228.901 30.6017C230.306 30.6017 231.45 30.1373 232.334 29.2084C233.24 28.2569 233.693 27.0448 233.693 25.5722C233.693 24.0996 233.24 22.8989 232.334 21.9701C231.45 21.0185 230.306 20.5428 228.901 20.5428C227.519 20.5428 226.375 21.0072 225.469 21.9361C224.563 22.8649 224.11 24.0657 224.11 25.5383C224.11 27.0109 224.563 28.2229 225.469 29.1744C226.375 30.1259 227.519 30.6017 228.901 30.6017ZM251.274 34.4078C249.575 34.4078 248.068 34.0453 246.754 33.3203C245.44 32.5954 244.409 31.5759 243.662 30.2619C242.914 28.9479 242.54 27.43 242.54 25.7082C242.54 23.9637 242.903 22.4118 243.628 21.0525C244.375 19.6932 245.395 18.6397 246.686 17.8921C248 17.1218 249.541 16.7367 251.308 16.7367C252.962 16.7367 254.423 17.0992 255.692 17.8241C256.96 18.5491 257.946 19.5459 258.648 20.8146C259.373 22.0607 259.736 23.454 259.736 24.9945C259.736 25.2437 259.724 25.5043 259.702 25.7761C259.702 26.048 259.69 26.3312 259.668 26.6257H246.856C246.947 27.9397 247.4 28.9705 248.215 29.7182C249.054 30.4658 250.062 30.8396 251.24 30.8396C252.123 30.8396 252.86 30.647 253.449 30.2619C254.06 29.8541 254.513 29.333 254.808 28.6987H259.226C258.909 29.7635 258.376 30.7376 257.629 31.6212C256.904 32.4821 255.997 33.1618 254.91 33.6602C253.845 34.1586 252.633 34.4078 251.274 34.4078ZM251.308 20.2709C250.243 20.2709 249.303 20.5768 248.487 21.1884C247.672 21.7775 247.151 22.6837 246.924 23.9071H255.318C255.25 22.797 254.842 21.9134 254.094 21.2564C253.347 20.5994 252.418 20.2709 251.308 20.2709ZM271.04 34.4078C269.545 34.4078 268.231 34.1699 267.098 33.6942C265.965 33.1957 265.059 32.5161 264.379 31.6552C263.7 30.7943 263.292 29.7974 263.156 28.6647H267.54C267.676 29.3217 268.038 29.8881 268.627 30.3638C269.239 30.8169 270.021 31.0435 270.972 31.0435C271.924 31.0435 272.615 30.8509 273.045 30.4658C273.498 30.0806 273.725 29.6389 273.725 29.1404C273.725 28.4155 273.408 27.9284 272.773 27.6792C272.139 27.4073 271.255 27.1468 270.123 26.8976C269.398 26.739 268.661 26.5464 267.914 26.3199C267.166 26.0933 266.475 25.8101 265.841 25.4703C265.229 25.1078 264.731 24.6547 264.345 24.111C263.96 23.5446 263.768 22.8536 263.768 22.038C263.768 20.5428 264.357 19.2854 265.535 18.2659C266.736 17.2464 268.412 16.7367 270.564 16.7367C272.558 16.7367 274.144 17.2011 275.322 18.13C276.523 19.0589 277.236 20.3389 277.463 21.9701H273.351C273.102 20.724 272.162 20.101 270.53 20.101C269.715 20.101 269.08 20.2596 268.627 20.5768C268.197 20.8939 267.982 21.2904 267.982 21.7662C267.982 22.2646 268.31 22.661 268.967 22.9556C269.624 23.2501 270.496 23.5219 271.584 23.7711C272.762 24.043 273.838 24.3489 274.812 24.6887C275.809 25.0059 276.602 25.4929 277.191 26.15C277.78 26.7843 278.075 27.7018 278.075 28.9026C278.097 29.9447 277.825 30.8849 277.259 31.7231C276.693 32.5614 275.877 33.2184 274.812 33.6942C273.747 34.1699 272.49 34.4078 271.04 34.4078ZM284.952 14.5278C284.159 14.5278 283.502 14.2899 282.981 13.8142C282.483 13.3384 282.234 12.738 282.234 12.0131C282.234 11.2881 282.483 10.6991 282.981 10.246C283.502 9.77019 284.159 9.53231 284.952 9.53231C285.745 9.53231 286.391 9.77019 286.889 10.246C287.411 10.6991 287.671 11.2881 287.671 12.0131C287.671 12.738 287.411 13.3384 286.889 13.8142C286.391 14.2899 285.745 14.5278 284.952 14.5278ZM282.778 34V17.1445H287.127V34H282.778ZM299.484 28.9705C298.668 28.9705 297.909 28.8799 297.207 28.6987L295.949 29.956C296.334 30.1599 296.856 30.3298 297.513 30.4658C298.17 30.6017 299.234 30.7376 300.707 30.8736C302.95 31.0775 304.581 31.6099 305.6 32.4708C306.62 33.3317 307.13 34.5211 307.13 36.039C307.13 37.0358 306.858 37.976 306.314 38.8596C305.77 39.7658 304.932 40.4907 303.799 41.0345C302.667 41.6008 301.217 41.884 299.45 41.884C297.048 41.884 295.111 41.4309 293.638 40.5247C292.166 39.6412 291.43 38.3045 291.43 36.5147C291.43 34.9968 292.166 33.6828 293.638 32.5727C293.185 32.3688 292.789 32.1536 292.449 31.927C292.132 31.7005 291.849 31.4626 291.6 31.2134V30.4318L294.556 27.3054C293.242 26.15 292.585 24.666 292.585 22.8536C292.585 21.7208 292.857 20.69 293.401 19.7612C293.967 18.8323 294.76 18.096 295.779 17.5523C296.799 17.0086 298.034 16.7367 299.484 16.7367C300.435 16.7367 301.319 16.8726 302.134 17.1445H308.523V19.7951L305.634 19.999C306.088 20.8599 306.314 21.8115 306.314 22.8536C306.314 23.9864 306.042 25.0172 305.499 25.9461C304.955 26.8749 304.162 27.6112 303.12 28.1549C302.1 28.6987 300.888 28.9705 299.484 28.9705ZM299.484 25.6402C300.367 25.6402 301.092 25.4023 301.658 24.9266C302.247 24.4508 302.542 23.7711 302.542 22.8876C302.542 22.004 302.247 21.3244 301.658 20.8486C301.092 20.3729 300.367 20.135 299.484 20.135C298.555 20.135 297.807 20.3729 297.241 20.8486C296.674 21.3244 296.391 22.004 296.391 22.8876C296.391 23.7711 296.674 24.4508 297.241 24.9266C297.807 25.4023 298.555 25.6402 299.484 25.6402ZM295.406 36.073C295.406 36.9112 295.791 37.5342 296.561 37.942C297.354 38.3725 298.317 38.5877 299.45 38.5877C300.537 38.5877 301.421 38.3611 302.1 37.908C302.78 37.4776 303.12 36.8885 303.12 36.1409C303.12 35.5292 302.893 35.0195 302.44 34.6117C302.01 34.2039 301.137 33.9547 299.823 33.8641C298.895 33.7961 298.034 33.6942 297.241 33.5582C296.584 33.9207 296.108 34.3172 295.813 34.7476C295.542 35.1781 295.406 35.6199 295.406 36.073ZM312.374 34V17.1445H316.215L316.554 19.999C317.075 19.0022 317.823 18.2093 318.797 17.6202C319.794 17.0312 320.961 16.7367 322.297 16.7367C324.382 16.7367 326.002 17.3937 327.157 18.7077C328.312 20.0217 328.89 21.9474 328.89 24.4848V34H324.54V24.8926C324.54 23.4426 324.246 22.3325 323.657 21.5623C323.068 20.792 322.15 20.4068 320.904 20.4068C319.681 20.4068 318.673 20.8373 317.88 21.6982C317.109 22.5591 316.724 23.7598 316.724 25.3004V34H312.374ZM341.919 34.4078C340.22 34.4078 338.713 34.0453 337.399 33.3203C336.085 32.5954 335.055 31.5759 334.307 30.2619C333.559 28.9479 333.186 27.43 333.186 25.7082C333.186 23.9637 333.548 22.4118 334.273 21.0525C335.021 19.6932 336.04 18.6397 337.331 17.8921C338.645 17.1218 340.186 16.7367 341.953 16.7367C343.607 16.7367 345.068 17.0992 346.337 17.8241C347.606 18.5491 348.591 19.5459 349.293 20.8146C350.018 22.0607 350.381 23.454 350.381 24.9945C350.381 25.2437 350.37 25.5043 350.347 25.7761C350.347 26.048 350.336 26.3312 350.313 26.6257H337.501C337.592 27.9397 338.045 28.9705 338.861 29.7182C339.699 30.4658 340.707 30.8396 341.885 30.8396C342.769 30.8396 343.505 30.647 344.094 30.2619C344.706 29.8541 345.159 29.333 345.453 28.6987H349.871C349.554 29.7635 349.022 30.7376 348.274 31.6212C347.549 32.4821 346.643 33.1618 345.555 33.6602C344.491 34.1586 343.278 34.4078 341.919 34.4078ZM341.953 20.2709C340.888 20.2709 339.948 20.5768 339.133 21.1884C338.317 21.7775 337.796 22.6837 337.569 23.9071H345.963C345.895 22.797 345.487 21.9134 344.74 21.2564C343.992 20.5994 343.063 20.2709 341.953 20.2709ZM354.719 34V17.1445H358.593L359.001 20.3049C359.613 19.2174 360.439 18.3565 361.482 17.7222C362.546 17.0652 363.792 16.7367 365.22 16.7367V21.3244H363.996C363.045 21.3244 362.195 21.4716 361.448 21.7662C360.7 22.0607 360.111 22.5704 359.681 23.2954C359.273 24.0204 359.069 25.0285 359.069 26.3199V34H354.719Z" fill="white"/>
<path d="M3.40664 79.7284V44.66H15.38C19.488 44.66 22.8612 45.3948 25.4997 46.8643C28.1716 48.3004 30.1421 50.3377 31.4112 52.9762C32.7138 55.5813 33.3651 58.6539 33.3651 62.1942C33.3651 65.7344 32.7138 68.8238 31.4112 71.4622C30.1421 74.0673 28.1716 76.1046 25.4997 77.5742C22.8612 79.0103 19.488 79.7284 15.38 79.7284H3.40664ZM9.81914 74.2176H15.0794C18.0185 74.2176 20.3397 73.75 22.043 72.8149C23.7463 71.8463 24.9653 70.477 25.7001 68.7069C26.4349 66.9034 26.8023 64.7325 26.8023 62.1942C26.8023 59.6893 26.4349 57.5351 25.7001 55.7316C24.9653 53.9281 23.7463 52.542 22.043 51.5735C20.3397 50.6049 18.0185 50.1206 15.0794 50.1206H9.81914V74.2176ZM51.9482 80.3295C49.4433 80.3295 47.2223 79.7952 45.2852 78.7264C43.3481 77.6577 41.8284 76.1547 40.7263 74.2176C39.6241 72.2805 39.0731 70.0428 39.0731 67.5045C39.0731 64.9328 39.6074 62.6451 40.6762 60.6411C41.7783 58.6372 43.2813 57.0842 45.185 55.9821C47.1221 54.8465 49.3932 54.2787 51.9983 54.2787C54.4363 54.2787 56.5905 54.8131 58.4609 55.8819C60.3312 56.9506 61.784 58.4202 62.8194 60.2905C63.8881 62.1274 64.4225 64.1814 64.4225 66.4525C64.4225 66.8199 64.4058 67.2039 64.3724 67.6047C64.3724 68.0055 64.3557 68.423 64.3223 68.8572H45.4355C45.5691 70.7943 46.237 72.3139 47.4394 73.4161C48.6751 74.5182 50.1613 75.0693 51.8981 75.0693C53.2006 75.0693 54.2861 74.7854 55.1544 74.2176C56.0562 73.6164 56.7241 72.8483 57.1583 71.9131H63.671C63.2034 73.4829 62.4186 74.919 61.3164 76.2215C60.2477 77.4907 58.9117 78.4926 57.3086 79.2274C55.7389 79.9622 53.9521 80.3295 51.9482 80.3295ZM51.9983 59.4889C50.4285 59.4889 49.0425 59.9398 47.8402 60.8415C46.6378 61.7099 45.8696 63.0458 45.5357 64.8494H57.9098C57.8096 63.2128 57.2084 61.9103 56.1063 60.9417C55.0041 59.9732 53.6348 59.4889 51.9983 59.4889ZM76.5524 79.7284L67.4346 54.8799H74.1477L80.46 73.6665L86.7723 54.8799H93.4854L84.3175 79.7284H76.5524ZM109.382 80.3295C106.878 80.3295 104.657 79.7952 102.719 78.7264C100.782 77.6577 99.2627 76.1547 98.1605 74.2176C97.0584 72.2805 96.5073 70.0428 96.5073 67.5045C96.5073 64.9328 97.0417 62.6451 98.1104 60.6411C99.2126 58.6372 100.716 57.0842 102.619 55.9821C104.556 54.8465 106.827 54.2787 109.433 54.2787C111.871 54.2787 114.025 54.8131 115.895 55.8819C117.765 56.9506 119.218 58.4202 120.254 60.2905C121.322 62.1274 121.857 64.1814 121.857 66.4525C121.857 66.8199 121.84 67.2039 121.807 67.6047C121.807 68.0055 121.79 68.423 121.757 68.8572H102.87C103.003 70.7943 103.671 72.3139 104.874 73.4161C106.109 74.5182 107.596 75.0693 109.332 75.0693C110.635 75.0693 111.72 74.7854 112.589 74.2176C113.49 73.6164 114.158 72.8483 114.593 71.9131H121.105C120.638 73.4829 119.853 74.919 118.751 76.2215C117.682 77.4907 116.346 78.4926 114.743 79.2274C113.173 79.9622 111.386 80.3295 109.382 80.3295ZM109.433 59.4889C107.863 59.4889 106.477 59.9398 105.274 60.8415C104.072 61.7099 103.304 63.0458 102.97 64.8494H115.344C115.244 63.2128 114.643 61.9103 113.541 60.9417C112.438 59.9732 111.069 59.4889 109.433 59.4889ZM128.252 79.7284V43.658H134.665V79.7284H128.252ZM154.142 80.3295C151.737 80.3295 149.566 79.7785 147.629 78.6763C145.726 77.5742 144.206 76.0545 143.07 74.1174C141.968 72.1469 141.417 69.8758 141.417 67.3041C141.417 64.7325 141.985 62.4781 143.12 60.541C144.256 58.5704 145.776 57.0341 147.679 55.932C149.616 54.8298 151.787 54.2787 154.192 54.2787C156.563 54.2787 158.701 54.8298 160.605 55.932C162.542 57.0341 164.061 58.5704 165.163 60.541C166.299 62.4781 166.867 64.7325 166.867 67.3041C166.867 69.8758 166.299 72.1469 165.163 74.1174C164.061 76.0545 162.542 77.5742 160.605 78.6763C158.667 79.7785 156.513 80.3295 154.142 80.3295ZM154.142 74.7687C155.812 74.7687 157.265 74.1508 158.5 72.9151C159.736 71.6459 160.354 69.7756 160.354 67.3041C160.354 64.8327 159.736 62.979 158.5 61.7433C157.265 60.4742 155.829 59.8396 154.192 59.8396C152.489 59.8396 151.019 60.4742 149.783 61.7433C148.581 62.979 147.98 64.8327 147.98 67.3041C147.98 69.7756 148.581 71.6459 149.783 72.9151C151.019 74.1508 152.472 74.7687 154.142 74.7687ZM173.602 90.7499V54.8799H179.313L180.015 58.4369C180.816 57.3347 181.868 56.3661 183.171 55.5312C184.507 54.6962 186.227 54.2787 188.331 54.2787C190.669 54.2787 192.756 54.8465 194.593 55.9821C196.43 57.1176 197.883 58.6706 198.952 60.6411C200.02 62.6117 200.555 64.8494 200.555 67.3542C200.555 69.8591 200.02 72.0968 198.952 74.0673C197.883 76.0044 196.43 77.5408 194.593 78.6763C192.756 79.7785 190.669 80.3295 188.331 80.3295C186.461 80.3295 184.824 79.9789 183.421 79.2775C182.019 78.5761 180.883 77.5909 180.015 76.3217V90.7499H173.602ZM186.978 74.7186C189.016 74.7186 190.702 74.0339 192.038 72.6646C193.374 71.2953 194.042 69.5251 194.042 67.3542C194.042 65.1833 193.374 63.3965 192.038 61.9938C190.702 60.5911 189.016 59.8897 186.978 59.8897C184.908 59.8897 183.204 60.5911 181.868 61.9938C180.566 63.3631 179.914 65.1332 179.914 67.3041C179.914 69.475 180.566 71.2619 181.868 72.6646C183.204 74.0339 184.908 74.7186 186.978 74.7186ZM219.359 80.3295C216.854 80.3295 214.633 79.7952 212.696 78.7264C210.758 77.6577 209.239 76.1547 208.137 74.2176C207.035 72.2805 206.483 70.0428 206.483 67.5045C206.483 64.9328 207.018 62.6451 208.087 60.6411C209.189 58.6372 210.692 57.0842 212.595 55.9821C214.532 54.8465 216.804 54.2787 219.409 54.2787C221.847 54.2787 224.001 54.8131 225.871 55.8819C227.742 56.9506 229.194 58.4202 230.23 60.2905C231.298 62.1274 231.833 64.1814 231.833 66.4525C231.833 66.8199 231.816 67.2039 231.783 67.6047C231.783 68.0055 231.766 68.423 231.733 68.8572H212.846C212.979 70.7943 213.647 72.3139 214.85 73.4161C216.085 74.5182 217.572 75.0693 219.308 75.0693C220.611 75.0693 221.696 74.7854 222.565 74.2176C223.467 73.6164 224.135 72.8483 224.569 71.9131H231.081C230.614 73.4829 229.829 74.919 228.727 76.2215C227.658 77.4907 226.322 78.4926 224.719 79.2274C223.149 79.9622 221.362 80.3295 219.359 80.3295ZM219.409 59.4889C217.839 59.4889 216.453 59.9398 215.251 60.8415C214.048 61.7099 213.28 63.0458 212.946 64.8494H225.32C225.22 63.2128 224.619 61.9103 223.517 60.9417C222.415 59.9732 221.045 59.4889 219.409 59.4889ZM238.228 79.7284V54.8799H243.939L244.54 59.539C245.442 57.9359 246.661 56.6667 248.198 55.7316C249.767 54.763 251.604 54.2787 253.708 54.2787V61.0419H251.905C250.502 61.0419 249.25 61.259 248.147 61.6932C247.045 62.1274 246.177 62.8788 245.542 63.9476C244.941 65.0163 244.641 66.5026 244.641 68.4063V79.7284H238.228ZM283.404 80.2794C280.833 80.2794 278.595 79.8453 276.691 78.9769C274.788 78.0751 273.301 76.8227 272.233 75.2196C271.197 73.6164 270.68 71.7461 270.68 69.6086C270.68 67.3375 271.314 65.2835 272.583 63.4466C273.853 61.6097 275.74 60.1402 278.244 59.038C277.242 57.8691 276.524 56.7669 276.09 55.7316C275.656 54.6962 275.439 53.5941 275.439 52.4251C275.439 50.822 275.84 49.4026 276.641 48.1668C277.443 46.8977 278.578 45.8957 280.048 45.161C281.551 44.4262 283.338 44.0588 285.408 44.0588C287.513 44.0588 289.299 44.4429 290.769 45.2111C292.238 45.9792 293.341 47.0146 294.075 48.3171C294.843 49.6197 295.194 51.0725 295.127 52.6756H289.015C289.015 51.4399 288.648 50.5214 287.913 49.9202C287.212 49.2857 286.36 48.9684 285.358 48.9684C284.223 48.9684 283.304 49.2857 282.603 49.9202C281.935 50.5548 281.601 51.3731 281.601 52.375C281.601 53.21 281.868 54.0617 282.403 54.93C282.937 55.7984 283.722 56.8003 284.757 57.9359L294.576 67.6548C295.278 66.5193 296.012 65.2 296.781 63.6971L297.883 61.4928H304.446L302.692 64.8995C301.356 67.6047 300.02 69.8925 298.684 71.7628L306.75 79.7284H299.085L295.177 75.8207C293.474 77.3905 291.654 78.526 289.717 79.2274C287.813 79.9288 285.709 80.2794 283.404 80.2794ZM276.892 69.2079C276.892 70.8444 277.493 72.2304 278.695 73.366C279.931 74.4681 281.568 75.0192 283.605 75.0192C286.511 75.0192 289.032 73.9838 291.17 71.9131L281.902 62.7453C280.198 63.48 278.929 64.3985 278.094 65.5006C277.293 66.6028 276.892 67.8385 276.892 69.2079ZM14.6786 145.33C12.3407 145.33 10.2533 144.762 8.41641 143.626C6.5795 142.491 5.12666 140.938 4.05791 138.967C2.98916 136.997 2.45479 134.759 2.45479 132.254C2.45479 129.749 2.98916 127.528 4.05791 125.591C5.12666 123.621 6.5795 122.084 8.41641 120.982C10.2533 119.847 12.3407 119.279 14.6786 119.279C16.5489 119.279 18.1855 119.629 19.5882 120.331C20.9909 121.032 22.1265 122.017 22.9948 123.287V108.658H29.4073V144.728H23.6962L22.9948 141.171C22.1933 142.274 21.1245 143.242 19.7886 144.077C18.486 144.912 16.7827 145.33 14.6786 145.33ZM16.0313 139.719C18.102 139.719 19.7886 139.034 21.0911 137.665C22.4271 136.262 23.095 134.475 23.095 132.304C23.095 130.133 22.4271 128.363 21.0911 126.994C19.7886 125.591 18.102 124.89 16.0313 124.89C13.994 124.89 12.3073 125.574 10.9714 126.944C9.63545 128.313 8.96748 130.083 8.96748 132.254C8.96748 134.425 9.63545 136.212 10.9714 137.614C12.3073 139.017 13.994 139.719 16.0313 139.719ZM49.0127 145.33C46.5079 145.33 44.2869 144.795 42.3498 143.726C40.4126 142.658 38.893 141.155 37.7909 139.218C36.6887 137.281 36.1376 135.043 36.1376 132.505C36.1376 129.933 36.672 127.645 37.7408 125.641C38.8429 123.637 40.3458 122.084 42.2496 120.982C44.1867 119.847 46.4578 119.279 49.0628 119.279C51.5009 119.279 53.6551 119.813 55.5254 120.882C57.3958 121.951 58.8486 123.42 59.8839 125.29C60.9527 127.127 61.4871 129.181 61.4871 131.452C61.4871 131.82 61.4704 132.204 61.437 132.605C61.437 133.006 61.4203 133.423 61.3869 133.857H42.5C42.6336 135.794 43.3016 137.314 44.504 138.416C45.7397 139.518 47.2259 140.069 48.9626 140.069C50.2652 140.069 51.3506 139.785 52.219 139.218C53.1208 138.616 53.7887 137.848 54.2229 136.913H60.7356C60.268 138.483 59.4832 139.919 58.381 141.222C57.3123 142.491 55.9763 143.493 54.3732 144.227C52.8035 144.962 51.0167 145.33 49.0127 145.33ZM49.0628 124.489C47.4931 124.489 46.1071 124.94 44.9047 125.842C43.7024 126.71 42.9342 128.046 42.6002 129.849H54.9744C54.8742 128.213 54.273 126.91 53.1709 125.942C52.0687 124.973 50.6994 124.489 49.0628 124.489ZM78.1524 145.33C75.9481 145.33 74.011 144.979 72.341 144.277C70.6711 143.543 69.3352 142.541 68.3332 141.272C67.3313 140.002 66.7301 138.533 66.5297 136.863H72.9923C73.1927 137.832 73.7271 138.667 74.5954 139.368C75.4972 140.036 76.6494 140.37 78.0522 140.37C79.4549 140.37 80.4736 140.086 81.1081 139.518C81.7761 138.95 82.1101 138.299 82.1101 137.564C82.1101 136.496 81.6425 135.778 80.7074 135.41C79.7722 135.009 78.4697 134.625 76.7997 134.258C75.731 134.024 74.6455 133.74 73.5434 133.406C72.4412 133.072 71.4226 132.655 70.4874 132.154C69.5857 131.619 68.8509 130.952 68.2831 130.15C67.7154 129.315 67.4315 128.296 67.4315 127.094C67.4315 124.89 68.2998 123.036 70.0365 121.533C71.8067 120.03 74.2782 119.279 77.451 119.279C80.3901 119.279 82.728 119.963 84.4647 121.333C86.2348 122.702 87.2868 124.589 87.6208 126.994H81.559C81.1916 125.157 79.8056 124.238 77.4009 124.238C76.1986 124.238 75.2634 124.472 74.5954 124.94C73.9609 125.407 73.6436 125.992 73.6436 126.693C73.6436 127.428 74.1279 128.012 75.0964 128.447C76.065 128.881 77.3508 129.282 78.9539 129.649C80.6907 130.05 82.2771 130.501 83.7132 131.002C85.1827 131.469 86.3517 132.187 87.2201 133.156C88.0884 134.091 88.5226 135.444 88.5226 137.214C88.556 138.75 88.1552 140.136 87.3202 141.372C86.4853 142.608 85.2829 143.576 83.7132 144.277C82.1435 144.979 80.2899 145.33 78.1524 145.33ZM98.6619 116.022C97.4929 116.022 96.5244 115.672 95.7562 114.97C95.0215 114.269 94.6541 113.384 94.6541 112.315C94.6541 111.246 95.0215 110.378 95.7562 109.71C96.5244 109.009 97.4929 108.658 98.6619 108.658C99.8308 108.658 100.783 109.009 101.517 109.71C102.286 110.378 102.67 111.246 102.67 112.315C102.67 113.384 102.286 114.269 101.517 114.97C100.783 115.672 99.8308 116.022 98.6619 116.022ZM95.4556 144.728V119.88H101.868V144.728H95.4556ZM120.084 137.314C118.881 137.314 117.763 137.18 116.727 136.913L114.874 138.767C115.441 139.067 116.21 139.318 117.178 139.518C118.147 139.719 119.716 139.919 121.887 140.119C125.194 140.42 127.598 141.205 129.101 142.474C130.604 143.743 131.356 145.497 131.356 147.734C131.356 149.204 130.955 150.59 130.153 151.892C129.352 153.228 128.116 154.297 126.446 155.099C124.776 155.934 122.639 156.351 120.034 156.351C116.493 156.351 113.638 155.683 111.467 154.347C109.296 153.045 108.211 151.074 108.211 148.436C108.211 146.198 109.296 144.261 111.467 142.624C110.799 142.324 110.214 142.006 109.714 141.672C109.246 141.338 108.828 140.988 108.461 140.62V139.468L112.82 134.859C110.882 133.156 109.914 130.968 109.914 128.296C109.914 126.626 110.315 125.107 111.116 123.737C111.951 122.368 113.12 121.283 114.623 120.481C116.126 119.68 117.946 119.279 120.084 119.279C121.486 119.279 122.789 119.479 123.991 119.88H133.41V123.788L129.151 124.088C129.819 125.357 130.153 126.76 130.153 128.296C130.153 129.966 129.753 131.486 128.951 132.855C128.149 134.225 126.981 135.31 125.444 136.112C123.941 136.913 122.154 137.314 120.084 137.314ZM120.084 132.404C121.386 132.404 122.455 132.054 123.29 131.352C124.158 130.651 124.593 129.649 124.593 128.346C124.593 127.044 124.158 126.042 123.29 125.341C122.455 124.639 121.386 124.289 120.084 124.289C118.714 124.289 117.612 124.639 116.777 125.341C115.942 126.042 115.525 127.044 115.525 128.346C115.525 129.649 115.942 130.651 116.777 131.352C117.612 132.054 118.714 132.404 120.084 132.404ZM114.072 147.784C114.072 149.02 114.64 149.939 115.775 150.54C116.944 151.174 118.364 151.492 120.034 151.492C121.637 151.492 122.939 151.158 123.941 150.49C124.943 149.855 125.444 148.987 125.444 147.885C125.444 146.983 125.11 146.231 124.442 145.63C123.808 145.029 122.522 144.662 120.585 144.528C119.215 144.428 117.946 144.277 116.777 144.077C115.809 144.611 115.107 145.196 114.673 145.831C114.272 146.465 114.072 147.116 114.072 147.784ZM139.088 144.728V119.88H144.749L145.25 124.088C146.018 122.619 147.12 121.45 148.556 120.581C150.026 119.713 151.746 119.279 153.716 119.279C156.789 119.279 159.177 120.247 160.88 122.184C162.583 124.122 163.435 126.96 163.435 130.701V144.728H157.023V131.302C157.023 129.165 156.588 127.528 155.72 126.393C154.852 125.257 153.499 124.689 151.662 124.689C149.859 124.689 148.372 125.324 147.203 126.593C146.068 127.862 145.5 129.632 145.5 131.903V144.728H139.088ZM182.642 145.33C180.138 145.33 177.917 144.795 175.979 143.726C174.042 142.658 172.523 141.155 171.421 139.218C170.318 137.281 169.767 135.043 169.767 132.505C169.767 129.933 170.302 127.645 171.37 125.641C172.473 123.637 173.976 122.084 175.879 120.982C177.816 119.847 180.087 119.279 182.693 119.279C185.131 119.279 187.285 119.813 189.155 120.882C191.025 121.951 192.478 123.42 193.514 125.29C194.582 127.127 195.117 129.181 195.117 131.452C195.117 131.82 195.1 132.204 195.067 132.605C195.067 133.006 195.05 133.423 195.017 133.857H176.13C176.263 135.794 176.931 137.314 178.134 138.416C179.369 139.518 180.856 140.069 182.592 140.069C183.895 140.069 184.98 139.785 185.849 139.218C186.75 138.616 187.418 137.848 187.853 136.913H194.365C193.898 138.483 193.113 139.919 192.011 141.222C190.942 142.491 189.606 143.493 188.003 144.227C186.433 144.962 184.646 145.33 182.642 145.33ZM182.693 124.489C181.123 124.489 179.737 124.94 178.534 125.842C177.332 126.71 176.564 128.046 176.23 129.849H188.604C188.504 128.213 187.903 126.91 186.801 125.942C185.698 124.973 184.329 124.489 182.693 124.489ZM201.512 144.728V119.88H207.223L207.824 124.539C208.726 122.936 209.945 121.667 211.481 120.732C213.051 119.763 214.888 119.279 216.992 119.279V126.042H215.189C213.786 126.042 212.534 126.259 211.431 126.693C210.329 127.127 209.461 127.879 208.826 128.948C208.225 130.016 207.925 131.503 207.925 133.406V144.728H201.512Z" fill="white" fill-opacity="0.7"/>
<path d="M3.40664 112.381V77.3125H15.38C19.488 77.3125 22.8612 78.0472 25.4997 79.5168C28.1716 80.9529 30.1421 82.9902 31.4112 85.6287C32.7138 88.2337 33.3651 91.3064 33.3651 94.8466C33.3651 98.3869 32.7138 101.476 31.4112 104.115C30.1421 106.72 28.1716 108.757 25.4997 110.227C22.8612 111.663 19.488 112.381 15.38 112.381H3.40664ZM9.81914 106.87H15.0794C18.0185 106.87 20.3397 106.403 22.043 105.467C23.7463 104.499 24.9653 103.129 25.7001 101.359C26.4349 99.5558 26.8023 97.3849 26.8023 94.8466C26.8023 92.3418 26.4349 90.1876 25.7001 88.384C24.9653 86.5805 23.7463 85.1945 22.043 84.2259C20.3397 83.2574 18.0185 82.7731 15.0794 82.7731H9.81914V106.87ZM51.9482 112.982C49.4433 112.982 47.2223 112.448 45.2852 111.379C43.3481 110.31 41.8284 108.807 40.7263 106.87C39.6241 104.933 39.0731 102.695 39.0731 100.157C39.0731 97.5853 39.6074 95.2975 40.6762 93.2936C41.7783 91.2897 43.2813 89.7367 45.185 88.6345C47.1221 87.499 49.3932 86.9312 51.9983 86.9312C54.4363 86.9312 56.5905 87.4656 58.4609 88.5343C60.3312 89.6031 61.784 91.0726 62.8194 92.9429C63.8881 94.7798 64.4225 96.8338 64.4225 99.1049C64.4225 99.4723 64.4058 99.8564 64.3724 100.257C64.3724 100.658 64.3557 101.075 64.3223 101.51H45.4355C45.5691 103.447 46.237 104.966 47.4394 106.069C48.6751 107.171 50.1613 107.722 51.8981 107.722C53.2006 107.722 54.2861 107.438 55.1544 106.87C56.0562 106.269 56.7241 105.501 57.1583 104.566H63.671C63.2034 106.135 62.4186 107.571 61.3164 108.874C60.2477 110.143 58.9117 111.145 57.3086 111.88C55.7389 112.615 53.9521 112.982 51.9482 112.982ZM51.9983 92.1414C50.4285 92.1414 49.0425 92.5922 47.8402 93.494C46.6378 94.3624 45.8696 95.6983 45.5357 97.5018H57.9098C57.8096 95.8653 57.2084 94.5628 56.1063 93.5942C55.0041 92.6256 53.6348 92.1414 51.9983 92.1414ZM76.5524 112.381L67.4346 87.5324H74.1477L80.46 106.319L86.7723 87.5324H93.4854L84.3175 112.381H76.5524ZM109.382 112.982C106.878 112.982 104.657 112.448 102.719 111.379C100.782 110.31 99.2627 108.807 98.1605 106.87C97.0584 104.933 96.5073 102.695 96.5073 100.157C96.5073 97.5853 97.0417 95.2975 98.1104 93.2936C99.2126 91.2897 100.716 89.7367 102.619 88.6345C104.556 87.499 106.827 86.9312 109.433 86.9312C111.871 86.9312 114.025 87.4656 115.895 88.5343C117.765 89.6031 119.218 91.0726 120.254 92.9429C121.322 94.7798 121.857 96.8338 121.857 99.1049C121.857 99.4723 121.84 99.8564 121.807 100.257C121.807 100.658 121.79 101.075 121.757 101.51H102.87C103.003 103.447 103.671 104.966 104.874 106.069C106.109 107.171 107.596 107.722 109.332 107.722C110.635 107.722 111.72 107.438 112.589 106.87C113.49 106.269 114.158 105.501 114.593 104.566H121.105C120.638 106.135 119.853 107.571 118.751 108.874C117.682 110.143 116.346 111.145 114.743 111.88C113.173 112.615 111.386 112.982 109.382 112.982ZM109.433 92.1414C107.863 92.1414 106.477 92.5922 105.274 93.494C104.072 94.3624 103.304 95.6983 102.97 97.5018H115.344C115.244 95.8653 114.643 94.5628 113.541 93.5942C112.438 92.6256 111.069 92.1414 109.433 92.1414ZM128.252 112.381V76.3105H134.665V112.381H128.252ZM154.142 112.982C151.737 112.982 149.566 112.431 147.629 111.329C145.726 110.227 144.206 108.707 143.07 106.77C141.968 104.799 141.417 102.528 141.417 99.9566C141.417 97.3849 141.985 95.1305 143.12 93.1934C144.256 91.2229 145.776 89.6866 147.679 88.5844C149.616 87.4823 151.787 86.9312 154.192 86.9312C156.563 86.9312 158.701 87.4823 160.605 88.5844C162.542 89.6866 164.061 91.2229 165.163 93.1934C166.299 95.1305 166.867 97.3849 166.867 99.9566C166.867 102.528 166.299 104.799 165.163 106.77C164.061 108.707 162.542 110.227 160.605 111.329C158.667 112.431 156.513 112.982 154.142 112.982ZM154.142 107.421C155.812 107.421 157.265 106.803 158.5 105.568C159.736 104.298 160.354 102.428 160.354 99.9566C160.354 97.4851 159.736 95.6315 158.5 94.3958C157.265 93.1266 155.829 92.4921 154.192 92.4921C152.489 92.4921 151.019 93.1266 149.783 94.3958C148.581 95.6315 147.98 97.4851 147.98 99.9566C147.98 102.428 148.581 104.298 149.783 105.568C151.019 106.803 152.472 107.421 154.142 107.421ZM173.602 123.402V87.5324H179.313L180.015 91.0893C180.816 89.9872 181.868 89.0186 183.171 88.1837C184.507 87.3487 186.227 86.9312 188.331 86.9312C190.669 86.9312 192.756 87.499 194.593 88.6345C196.43 89.7701 197.883 91.3231 198.952 93.2936C200.02 95.2641 200.555 97.5018 200.555 100.007C200.555 102.512 200.02 104.749 198.952 106.72C197.883 108.657 196.43 110.193 194.593 111.329C192.756 112.431 190.669 112.982 188.331 112.982C186.461 112.982 184.824 112.631 183.421 111.93C182.019 111.229 180.883 110.243 180.015 108.974V123.402H173.602ZM186.978 107.371C189.016 107.371 190.702 106.686 192.038 105.317C193.374 103.948 194.042 102.178 194.042 100.007C194.042 97.8358 193.374 96.049 192.038 94.6463C190.702 93.2435 189.016 92.5421 186.978 92.5421C184.908 92.5421 183.204 93.2435 181.868 94.6463C180.566 96.0156 179.914 97.7857 179.914 99.9566C179.914 102.128 180.566 103.914 181.868 105.317C183.204 106.686 184.908 107.371 186.978 107.371ZM219.359 112.982C216.854 112.982 214.633 112.448 212.696 111.379C210.758 110.31 209.239 108.807 208.137 106.87C207.035 104.933 206.483 102.695 206.483 100.157C206.483 97.5853 207.018 95.2975 208.087 93.2936C209.189 91.2897 210.692 89.7367 212.595 88.6345C214.532 87.499 216.804 86.9312 219.409 86.9312C221.847 86.9312 224.001 87.4656 225.871 88.5343C227.742 89.6031 229.194 91.0726 230.23 92.9429C231.298 94.7798 231.833 96.8338 231.833 99.1049C231.833 99.4723 231.816 99.8564 231.783 100.257C231.783 100.658 231.766 101.075 231.733 101.51H212.846C212.979 103.447 213.647 104.966 214.85 106.069C216.085 107.171 217.572 107.722 219.308 107.722C220.611 107.722 221.696 107.438 222.565 106.87C223.467 106.269 224.135 105.501 224.569 104.566H231.081C230.614 106.135 229.829 107.571 228.727 108.874C227.658 110.143 226.322 111.145 224.719 111.88C223.149 112.615 221.362 112.982 219.359 112.982ZM219.409 92.1414C217.839 92.1414 216.453 92.5922 215.251 93.494C214.048 94.3624 213.28 95.6983 212.946 97.5018H225.32C225.22 95.8653 224.619 94.5628 223.517 93.5942C222.415 92.6256 221.045 92.1414 219.409 92.1414ZM238.228 112.381V87.5324H243.939L244.54 92.1915C245.442 90.5883 246.661 89.3192 248.198 88.384C249.767 87.4155 251.604 86.9312 253.708 86.9312V93.6944H251.905C250.502 93.6944 249.25 93.9115 248.147 94.3457C247.045 94.7798 246.177 95.5313 245.542 96.6001C244.941 97.6688 244.641 99.155 244.641 101.059V112.381H238.228Z" fill="white" fill-opacity="0.4"/>
</svg>
